<svg width="538" height="1008" viewBox="0 0 538 1008" fill="none" xmlns="http://www.w3.org/2000/svg">
<rect width="537.443" height="1007.56" rx="30" fill="#F5F5F5"/>
<g filter="url(#filter0_d_659_586)">
<rect x="25.1035" y="27.3857" width="484.954" height="957.356" rx="30" fill="url(#paint0_linear_659_586)"/>
</g>
<path d="M86.475 357.286C83.307 357.286 81.003 356.11 81.003 353.83C81.003 352.702 81.699 351.67 82.923 350.95V350.83C82.227 350.398 81.723 349.702 81.723 348.622C81.723 347.59 82.443 346.702 83.187 346.174V346.078C82.299 345.406 81.435 344.134 81.435 342.574C81.435 339.574 83.835 337.822 86.547 337.822C87.315 337.822 87.987 337.966 88.491 338.158H93.147V340.246H90.651C91.155 340.774 91.515 341.638 91.515 342.646C91.515 345.55 89.331 347.182 86.547 347.182C85.971 347.182 85.299 347.062 84.699 346.798C84.291 347.158 83.979 347.542 83.979 348.19C83.979 348.958 84.531 349.462 86.187 349.462H88.635C91.755 349.462 93.387 350.422 93.387 352.678C93.387 355.222 90.699 357.286 86.475 357.286ZM86.547 345.406C87.915 345.406 89.043 344.326 89.043 342.574C89.043 340.798 87.939 339.79 86.547 339.79C85.179 339.79 84.075 340.798 84.075 342.574C84.075 344.326 85.203 345.406 86.547 345.406ZM86.883 355.462C89.187 355.462 90.699 354.334 90.699 353.134C90.699 352.03 89.835 351.67 88.227 351.67H86.235C85.611 351.67 85.035 351.622 84.483 351.478C83.691 352.078 83.355 352.75 83.355 353.422C83.355 354.694 84.699 355.462 86.883 355.462ZM101.334 351.694C97.734 351.694 94.902 349.126 94.902 344.782C94.902 340.486 97.854 337.822 100.926 337.822C104.406 337.822 106.302 340.342 106.302 344.086C106.302 344.638 106.254 345.166 106.182 345.502H97.614C97.83 348.022 99.414 349.51 101.694 349.51C102.87 349.51 103.854 349.15 104.838 348.526L105.798 350.302C104.574 351.118 103.062 351.694 101.334 351.694ZM97.566 343.582H103.902C103.902 341.302 102.894 340.006 100.974 340.006C99.318 340.006 97.854 341.278 97.566 343.582ZM109.408 351.358V338.158H111.664L111.904 340.534H111.976C112.912 338.83 114.304 337.822 115.72 337.822C116.368 337.822 116.776 337.918 117.184 338.11L116.704 340.51C116.248 340.366 115.912 340.294 115.36 340.294C114.304 340.294 113.008 341.062 112.192 343.15V351.358H109.408ZM124.748 351.694C121.148 351.694 118.316 349.126 118.316 344.782C118.316 340.486 121.268 337.822 124.34 337.822C127.82 337.822 129.716 340.342 129.716 344.086C129.716 344.638 129.668 345.166 129.596 345.502H121.028C121.244 348.022 122.828 349.51 125.108 349.51C126.284 349.51 127.268 349.15 128.252 348.526L129.212 350.302C127.988 351.118 126.476 351.694 124.748 351.694ZM120.98 343.582H127.316C127.316 341.302 126.308 340.006 124.388 340.006C122.732 340.006 121.268 341.278 120.98 343.582ZM132.822 351.358V338.158H135.078L135.318 340.006H135.39C136.59 338.806 137.958 337.822 139.758 337.822C142.566 337.822 143.814 339.718 143.814 343.054V351.358H141.03V343.414C141.03 341.11 140.358 340.222 138.822 340.222C137.598 340.222 136.758 340.846 135.606 341.998V351.358H132.822ZM153.174 351.694C149.622 351.694 146.886 349.15 146.886 344.782C146.886 340.366 149.934 337.822 153.414 337.822C155.094 337.822 156.318 338.494 157.254 339.358L155.91 341.134C155.19 340.51 154.446 340.126 153.558 340.126C151.302 340.126 149.742 341.974 149.742 344.782C149.742 347.566 151.254 349.414 153.462 349.414C154.566 349.414 155.55 348.886 156.342 348.214L157.47 350.062C156.27 351.118 154.71 351.694 153.174 351.694ZM160.197 351.358V338.158H162.981V351.358H160.197ZM161.589 335.686C160.557 335.686 159.885 335.038 159.885 334.03C159.885 333.046 160.557 332.398 161.589 332.398C162.597 332.398 163.317 333.046 163.317 334.03C163.317 335.038 162.597 335.686 161.589 335.686ZM170.231 351.694C167.975 351.694 166.367 350.182 166.367 347.854C166.367 345.022 168.767 343.558 174.239 342.958C174.215 341.422 173.663 340.078 171.743 340.078C170.351 340.078 169.031 340.726 167.927 341.446L166.895 339.55C168.239 338.71 170.111 337.822 172.223 337.822C175.511 337.822 177.023 339.91 177.023 343.438V351.358H174.743L174.527 349.87H174.431C173.231 350.902 171.815 351.694 170.231 351.694ZM171.095 349.486C172.247 349.486 173.159 348.958 174.239 347.95V344.734C170.327 345.19 169.031 346.174 169.031 347.662C169.031 348.958 169.919 349.486 171.095 349.486ZM180.916 351.358V338.158H183.172L183.412 340.534H183.484C184.42 338.83 185.812 337.822 187.228 337.822C187.876 337.822 188.284 337.918 188.692 338.11L188.212 340.51C187.756 340.366 187.42 340.294 186.868 340.294C185.812 340.294 184.516 341.062 183.7 343.15V351.358H180.916ZM199.727 351.694C197.903 351.694 196.031 350.926 194.759 349.87L196.055 348.07C197.23 348.982 198.359 349.582 199.799 349.582C201.359 349.582 202.103 348.814 202.103 347.806C202.103 346.63 200.615 346.078 199.199 345.55C197.423 344.878 195.479 343.942 195.479 341.686C195.479 339.478 197.255 337.822 200.207 337.822C201.959 337.822 203.423 338.542 204.479 339.382L203.183 341.086C202.271 340.438 201.335 339.934 200.255 339.934C198.791 339.934 198.119 340.654 198.119 341.566C198.119 342.694 199.391 343.126 200.855 343.654C202.703 344.35 204.719 345.19 204.719 347.662C204.719 349.894 202.967 351.694 199.727 351.694ZM211.546 351.694C208.738 351.694 207.49 349.822 207.49 346.462V338.158H210.25V346.126C210.25 348.406 210.922 349.294 212.482 349.294C213.706 349.294 214.546 348.718 215.65 347.326V338.158H218.41V351.358H216.13L215.914 349.366H215.842C214.642 350.758 213.37 351.694 211.546 351.694ZM225.661 351.694C223.405 351.694 221.797 350.182 221.797 347.854C221.797 345.022 224.197 343.558 229.669 342.958C229.645 341.422 229.093 340.078 227.173 340.078C225.781 340.078 224.461 340.726 223.357 341.446L222.325 339.55C223.669 338.71 225.541 337.822 227.653 337.822C230.941 337.822 232.453 339.91 232.453 343.438V351.358H230.173L229.957 349.87H229.861C228.661 350.902 227.245 351.694 225.661 351.694ZM226.525 349.486C227.677 349.486 228.589 348.958 229.669 347.95V344.734C225.757 345.19 224.461 346.174 224.461 347.662C224.461 348.958 225.349 349.486 226.525 349.486ZM244.64 351.358L239.984 338.158H242.816L245.048 345.262C245.432 346.558 245.816 347.902 246.2 349.198H246.32C246.704 347.902 247.088 346.558 247.472 345.262L249.728 338.158H252.416L247.856 351.358H244.64ZM254.814 351.358V338.158H257.598V351.358H254.814ZM256.206 335.686C255.174 335.686 254.502 335.038 254.502 334.03C254.502 333.046 255.174 332.398 256.206 332.398C257.214 332.398 257.934 333.046 257.934 334.03C257.934 335.038 257.214 335.686 256.206 335.686ZM266.288 351.694C262.976 351.694 260.864 349.15 260.864 344.782C260.864 340.486 263.576 337.822 266.504 337.822C268.016 337.822 269 338.398 270.056 339.31L269.936 337.126V332.254H272.72V351.358H270.44L270.224 349.894H270.152C269.144 350.902 267.776 351.694 266.288 351.694ZM266.96 349.39C268.04 349.39 269 348.886 269.936 347.782V341.35C268.976 340.462 268.04 340.126 267.056 340.126C265.208 340.126 263.72 341.902 263.72 344.734C263.72 347.734 264.896 349.39 266.96 349.39ZM279.965 351.694C277.709 351.694 276.101 350.182 276.101 347.854C276.101 345.022 278.501 343.558 283.973 342.958C283.949 341.422 283.397 340.078 281.477 340.078C280.085 340.078 278.765 340.726 277.661 341.446L276.629 339.55C277.973 338.71 279.845 337.822 281.957 337.822C285.245 337.822 286.757 339.91 286.757 343.438V351.358H284.477L284.261 349.87H284.165C282.965 350.902 281.549 351.694 279.965 351.694ZM280.829 349.486C281.981 349.486 282.893 348.958 283.973 347.95V344.734C280.061 345.19 278.765 346.174 278.765 347.662C278.765 348.958 279.653 349.486 280.829 349.486ZM296.497 351.358V336.502C296.497 333.814 297.745 331.918 300.673 331.918C301.585 331.918 302.425 332.11 303.025 332.35L302.473 334.462C301.993 334.222 301.489 334.126 301.009 334.126C299.857 334.126 299.257 334.894 299.257 336.502V351.358H296.497ZM294.697 340.366V338.302L296.641 338.158H301.945V340.366H294.697ZM304.321 351.358V338.158H307.105V351.358H304.321ZM305.713 335.686C304.705 335.686 304.009 335.038 304.009 334.03C304.009 333.046 304.705 332.398 305.713 332.398C306.721 332.398 307.465 333.046 307.465 334.03C307.465 335.038 306.721 335.686 305.713 335.686ZM311.228 351.358V338.158H313.484L313.724 340.006H313.796C314.996 338.806 316.364 337.822 318.164 337.822C320.972 337.822 322.22 339.718 322.22 343.054V351.358H319.436V343.414C319.436 341.11 318.764 340.222 317.228 340.222C316.004 340.222 315.164 340.846 314.012 341.998V351.358H311.228ZM329.325 351.694C327.069 351.694 325.461 350.182 325.461 347.854C325.461 345.022 327.861 343.558 333.333 342.958C333.309 341.422 332.757 340.078 330.837 340.078C329.445 340.078 328.125 340.726 327.021 341.446L325.989 339.55C327.333 338.71 329.205 337.822 331.317 337.822C334.605 337.822 336.117 339.91 336.117 343.438V351.358H333.837L333.621 349.87H333.525C332.325 350.902 330.909 351.694 329.325 351.694ZM330.189 349.486C331.341 349.486 332.253 348.958 333.333 347.95V344.734C329.421 345.19 328.125 346.174 328.125 347.662C328.125 348.958 329.013 349.486 330.189 349.486ZM340.009 351.358V338.158H342.265L342.505 340.006H342.577C343.777 338.806 345.145 337.822 346.945 337.822C349.753 337.822 351.001 339.718 351.001 343.054V351.358H348.217V343.414C348.217 341.11 347.545 340.222 346.009 340.222C344.785 340.222 343.945 340.846 342.793 341.998V351.358H340.009ZM360.362 351.694C356.81 351.694 354.074 349.15 354.074 344.782C354.074 340.366 357.122 337.822 360.602 337.822C362.282 337.822 363.506 338.494 364.442 339.358L363.098 341.134C362.378 340.51 361.634 340.126 360.746 340.126C358.49 340.126 356.93 341.974 356.93 344.782C356.93 347.566 358.442 349.414 360.65 349.414C361.754 349.414 362.738 348.886 363.53 348.214L364.658 350.062C363.458 351.118 361.898 351.694 360.362 351.694ZM372.904 351.694C369.304 351.694 366.472 349.126 366.472 344.782C366.472 340.486 369.424 337.822 372.496 337.822C375.976 337.822 377.872 340.342 377.872 344.086C377.872 344.638 377.824 345.166 377.752 345.502H369.184C369.4 348.022 370.984 349.51 373.264 349.51C374.44 349.51 375.424 349.15 376.408 348.526L377.368 350.302C376.144 351.118 374.632 351.694 372.904 351.694ZM369.136 343.582H375.472C375.472 341.302 374.464 340.006 372.544 340.006C370.888 340.006 369.424 341.278 369.136 343.582ZM380.978 351.358V338.158H383.762V351.358H380.978ZM382.37 335.686C381.338 335.686 380.666 335.038 380.666 334.03C380.666 333.046 381.338 332.398 382.37 332.398C383.378 332.398 384.098 333.046 384.098 334.03C384.098 335.038 383.378 335.686 382.37 335.686ZM387.892 351.358V338.158H390.148L390.388 340.534H390.46C391.396 338.83 392.788 337.822 394.204 337.822C394.852 337.822 395.26 337.918 395.668 338.11L395.188 340.51C394.732 340.366 394.396 340.294 393.844 340.294C392.788 340.294 391.492 341.062 390.676 343.15V351.358H387.892ZM400.832 351.694C398.576 351.694 396.968 350.182 396.968 347.854C396.968 345.022 399.368 343.558 404.84 342.958C404.816 341.422 404.264 340.078 402.344 340.078C400.952 340.078 399.632 340.726 398.528 341.446L397.496 339.55C398.84 338.71 400.712 337.822 402.824 337.822C406.112 337.822 407.624 339.91 407.624 343.438V351.358H405.344L405.128 349.87H405.032C403.832 350.902 402.416 351.694 400.832 351.694ZM401.696 349.486C402.848 349.486 403.76 348.958 404.84 347.95V344.734C400.928 345.19 399.632 346.174 399.632 347.662C399.632 348.958 400.52 349.486 401.696 349.486ZM416.908 351.358V338.158H419.164L419.404 340.006H419.476C420.676 338.806 422.044 337.822 423.844 337.822C426.652 337.822 427.9 339.718 427.9 343.054V351.358H425.116V343.414C425.116 341.11 424.444 340.222 422.908 340.222C421.684 340.222 420.844 340.846 419.692 341.998V351.358H416.908ZM435.772 351.694C432.964 351.694 431.716 349.822 431.716 346.462V338.158H434.476V346.126C434.476 348.406 435.148 349.294 436.708 349.294C437.932 349.294 438.772 348.718 439.876 347.326V338.158H442.636V351.358H440.356L440.14 349.366H440.068C438.868 350.758 437.596 351.694 435.772 351.694ZM446.767 351.358V338.158H449.023L449.263 340.006H449.335C450.535 338.806 451.903 337.822 453.703 337.822C456.511 337.822 457.759 339.718 457.759 343.054V351.358H454.975V343.414C454.975 341.11 454.303 340.222 452.767 340.222C451.543 340.222 450.703 340.846 449.551 341.998V351.358H446.767ZM467.12 351.694C463.568 351.694 460.832 349.15 460.832 344.782C460.832 340.366 463.88 337.822 467.36 337.822C469.04 337.822 470.264 338.494 471.2 339.358L469.856 341.134C469.136 340.51 468.392 340.126 467.504 340.126C465.248 340.126 463.688 341.974 463.688 344.782C463.688 347.566 465.2 349.414 467.408 349.414C468.512 349.414 469.496 348.886 470.288 348.214L471.416 350.062C470.216 351.118 468.656 351.694 467.12 351.694ZM477.262 351.694C475.006 351.694 473.398 350.182 473.398 347.854C473.398 345.022 475.798 343.558 481.27 342.958C481.246 341.422 480.694 340.078 478.774 340.078C477.382 340.078 476.062 340.726 474.958 341.446L473.926 339.55C475.27 338.71 477.142 337.822 479.254 337.822C482.542 337.822 484.054 339.91 484.054 343.438V351.358H481.774L481.558 349.87H481.462C480.262 350.902 478.846 351.694 477.262 351.694ZM478.126 349.486C479.278 349.486 480.19 348.958 481.27 347.95V344.734C477.358 345.19 476.062 346.174 476.062 347.662C476.062 348.958 476.95 349.486 478.126 349.486ZM82.395 386.358V371.502C82.395 368.814 83.643 366.918 86.571 366.918C87.483 366.918 88.323 367.11 88.923 367.35L88.371 369.462C87.891 369.222 87.387 369.126 86.907 369.126C85.755 369.126 85.155 369.894 85.155 371.502V386.358H82.395ZM80.595 375.366V373.302L82.539 373.158H87.843V375.366H80.595ZM95.5399 386.694C92.2519 386.694 89.3239 384.15 89.3239 379.782C89.3239 375.366 92.2519 372.822 95.5399 372.822C98.8039 372.822 101.756 375.366 101.756 379.782C101.756 384.15 98.8039 386.694 95.5399 386.694ZM95.5399 384.414C97.6039 384.414 98.9239 382.566 98.9239 379.782C98.9239 376.974 97.6039 375.126 95.5399 375.126C93.4519 375.126 92.1799 376.974 92.1799 379.782C92.1799 382.566 93.4519 384.414 95.5399 384.414ZM105.002 386.358V373.158H107.786V386.358H105.002ZM106.394 370.686C105.362 370.686 104.69 370.038 104.69 369.03C104.69 368.046 105.362 367.398 106.394 367.398C107.402 367.398 108.122 368.046 108.122 369.03C108.122 370.038 107.402 370.686 106.394 370.686ZM121.746 386.694C118.794 386.694 117.738 384.822 117.738 382.062V375.366H115.818V373.302L117.882 373.158L118.194 369.51H120.498V373.158H123.954V375.366H120.498V382.086C120.498 383.646 121.074 384.486 122.442 384.486C122.898 384.486 123.45 384.318 123.858 384.15L124.362 386.19C123.618 386.43 122.73 386.694 121.746 386.694ZM129.942 386.694C127.686 386.694 126.078 385.182 126.078 382.854C126.078 380.022 128.478 378.558 133.95 377.958C133.926 376.422 133.374 375.078 131.454 375.078C130.062 375.078 128.742 375.726 127.638 376.446L126.606 374.55C127.95 373.71 129.822 372.822 131.934 372.822C135.222 372.822 136.734 374.91 136.734 378.438V386.358H134.454L134.238 384.87H134.142C132.942 385.902 131.526 386.694 129.942 386.694ZM130.806 384.486C131.958 384.486 132.87 383.958 133.95 382.95V379.734C130.038 380.19 128.742 381.174 128.742 382.662C128.742 383.958 129.63 384.486 130.806 384.486ZM133.95 370.806C132.102 370.806 131.31 368.718 130.182 368.718C129.462 368.718 129.102 369.438 129.03 370.662L127.23 370.542C127.302 368.238 128.19 366.75 130.134 366.75C131.982 366.75 132.774 368.838 133.902 368.838C134.622 368.838 134.958 368.118 135.054 366.942L136.854 367.014C136.782 369.318 135.87 370.806 133.95 370.806ZM145.931 386.694C142.643 386.694 139.715 384.15 139.715 379.782C139.715 375.366 142.643 372.822 145.931 372.822C149.195 372.822 152.147 375.366 152.147 379.782C152.147 384.15 149.195 386.694 145.931 386.694ZM145.931 384.414C147.995 384.414 149.315 382.566 149.315 379.782C149.315 376.974 147.995 375.126 145.931 375.126C143.843 375.126 142.571 376.974 142.571 379.782C142.571 382.566 143.843 384.414 145.931 384.414ZM161.239 386.358V371.502C161.239 368.814 162.487 366.918 165.415 366.918C166.327 366.918 167.167 367.11 167.767 367.35L167.215 369.462C166.735 369.222 166.231 369.126 165.751 369.126C164.599 369.126 163.999 369.894 163.999 371.502V386.358H161.239ZM159.439 375.366V373.302L161.383 373.158H166.687V375.366H159.439ZM172.2 386.694C169.944 386.694 168.336 385.182 168.336 382.854C168.336 380.022 170.736 378.558 176.208 377.958C176.184 376.422 175.632 375.078 173.712 375.078C172.32 375.078 171 375.726 169.896 376.446L168.864 374.55C170.208 373.71 172.08 372.822 174.192 372.822C177.48 372.822 178.992 374.91 178.992 378.438V386.358H176.712L176.496 384.87H176.4C175.2 385.902 173.784 386.694 172.2 386.694ZM173.064 384.486C174.216 384.486 175.128 383.958 176.208 382.95V379.734C172.296 380.19 171 381.174 171 382.662C171 383.958 171.888 384.486 173.064 384.486ZM174.12 370.902L172.728 369.534L176.64 364.902L178.56 366.726L174.12 370.902ZM188.26 386.694C184.708 386.694 181.972 384.15 181.972 379.782C181.972 375.366 185.02 372.822 188.5 372.822C190.18 372.822 191.404 373.494 192.34 374.358L190.996 376.134C190.276 375.51 189.532 375.126 188.644 375.126C186.388 375.126 184.828 376.974 184.828 379.782C184.828 382.566 186.34 384.414 188.548 384.414C189.652 384.414 190.636 383.886 191.428 383.214L192.556 385.062C191.356 386.118 189.796 386.694 188.26 386.694ZM195.283 386.358V373.158H198.067V386.358H195.283ZM196.675 370.686C195.643 370.686 194.971 370.038 194.971 369.03C194.971 368.046 195.643 367.398 196.675 367.398C197.683 367.398 198.403 368.046 198.403 369.03C198.403 370.038 197.683 370.686 196.675 370.686ZM204.957 386.694C202.941 386.694 202.197 385.398 202.197 383.262V367.254H204.981V383.406C204.981 384.15 205.293 384.414 205.629 384.414C205.749 384.414 205.845 384.414 206.085 384.366L206.445 386.454C206.085 386.574 205.653 386.694 204.957 386.694Z" fill="#263238"/>
<path d="M112.139 281.977C100.349 281.977 90.7192 278.287 90.7192 269.107C90.7192 264.877 93.1492 261.457 97.9192 259.027V258.577C95.2192 256.777 93.2392 254.077 93.2392 249.757C93.2392 246.157 95.5792 242.557 98.9992 240.217V239.857C95.3092 237.337 91.9792 232.567 91.9792 226.537C91.9792 214.117 102.329 207.997 113.399 207.997C116.369 207.997 119.159 208.447 121.499 209.257H140.309V220.867H132.479C133.199 222.307 133.829 224.647 133.829 227.077C133.829 239.047 124.739 244.267 113.399 244.267C111.689 244.267 109.619 243.997 107.369 243.367C106.289 244.447 105.749 245.167 105.749 246.967C105.749 249.307 107.819 250.387 113.309 250.387H121.409C134.009 250.387 141.209 254.257 141.209 263.527C141.209 274.327 129.959 281.977 112.139 281.977ZM113.399 234.637C117.179 234.637 119.969 231.937 119.969 226.537C119.969 221.407 117.179 218.707 113.399 218.707C109.709 218.707 106.919 221.407 106.919 226.537C106.919 231.937 109.709 234.637 113.399 234.637ZM114.659 271.987C121.229 271.987 125.819 269.557 125.819 266.317C125.819 263.257 123.119 262.627 118.349 262.627H113.489C109.799 262.627 107.819 262.447 106.199 261.997C104.579 263.437 103.859 264.877 103.859 266.587C103.859 270.187 108.179 271.987 114.659 271.987ZM169.909 261.727C155.149 261.727 143.809 251.827 143.809 234.817C143.809 218.257 155.779 207.997 168.109 207.997C182.869 207.997 190.069 218.707 190.069 232.657C190.069 235.537 189.709 238.327 189.349 239.587H159.289C160.729 246.607 165.589 249.487 172.069 249.487C175.759 249.487 179.179 248.407 182.869 246.247L188.179 255.877C182.869 259.657 175.849 261.727 169.909 261.727ZM159.019 229.057H176.479C176.479 224.017 174.229 220.237 168.379 220.237C163.969 220.237 160.099 223.027 159.019 229.057ZM214.883 261.727C203.903 261.727 200.303 254.527 200.303 243.817V188.557H216.323V244.357C216.323 247.777 217.853 248.767 219.113 248.767C219.653 248.767 220.013 248.767 220.913 248.587L222.803 260.377C221.093 261.097 218.483 261.727 214.883 261.727ZM248.545 261.727C235.765 261.727 227.575 251.557 227.575 234.817C227.575 218.077 238.105 207.997 248.725 207.997C254.395 207.997 257.725 210.067 261.055 213.307L260.515 205.657V188.557H276.535V260.467H263.485L262.315 255.517H261.955C258.355 259.117 253.405 261.727 248.545 261.727ZM252.775 248.587C255.835 248.587 258.265 247.597 260.515 244.267V224.107C258.085 221.857 255.205 221.047 252.505 221.047C248.095 221.047 244.045 225.187 244.045 234.637C244.045 244.447 247.285 248.587 252.775 248.587ZM304.004 261.727C293.024 261.727 289.424 254.527 289.424 243.817V188.557H305.444V244.357C305.444 247.777 306.974 248.767 308.234 248.767C308.774 248.767 309.134 248.767 310.034 248.587L311.924 260.377C310.214 261.097 307.604 261.727 304.004 261.727ZM319.307 260.467V209.257H335.327V260.467H319.307ZM327.317 202.147C321.917 202.147 318.407 198.907 318.407 193.867C318.407 188.917 321.917 185.677 327.317 185.677C332.627 185.677 336.227 188.917 336.227 193.867C336.227 198.907 332.627 202.147 327.317 202.147Z" fill="#121A27"/>
<path d="M461.992 262.67L457.295 266.968L451.507 260.636H457.954C459.106 260.636 460.168 261.001 461.037 261.624L461.992 262.67Z" fill="#121A27"/>
<path d="M461.992 262.67L457.295 266.968L451.507 260.636H457.954C459.106 260.636 460.168 261.001 461.037 261.624L461.992 262.67Z" fill="#121A27"/>
<path d="M457.95 260.64H451.504L390.851 194.291C389.776 193.317 389.104 191.91 389.104 190.351C389.104 190.064 389.221 189.802 389.411 189.612C389.602 189.425 389.863 189.305 390.15 189.305H462.228C462.803 189.305 463.271 189.773 463.271 190.351C463.271 191.823 462.677 193.152 461.711 194.114C461.456 194.369 461.179 194.598 460.879 194.795L435.14 222.951L430.446 218.652L451.452 195.676H400.746L461.037 261.627C460.168 261.008 459.103 260.64 457.954 260.64H457.95Z" fill="#121A27"/>
<path d="M463.274 265.964C463.274 266.251 463.158 266.513 462.967 266.703C462.777 266.89 462.515 267.01 462.228 267.01H390.147C389.573 267.01 389.104 266.542 389.104 265.964C389.104 264.493 389.698 263.163 390.664 262.202C390.806 262.06 390.958 261.924 391.112 261.805L391.1 261.792L417.881 232.493L422.578 236.792L400.781 260.64H451.504L457.292 266.971L461.989 262.673L461.033 261.627C462.389 262.592 463.271 264.173 463.271 265.964H463.274Z" fill="#121A27"/>
<rect x="189.417" y="1.14111" width="163.173" height="54.7712" rx="15" fill="#F5F5F5"/>
<defs>
<filter id="filter0_d_659_586" x="17.1035" y="23.3857" width="500.954" height="973.356" filterUnits="userSpaceOnUse" color-interpolation-filters="sRGB">
<feFlood flood-opacity="0" result="BackgroundImageFix"/>
<feColorMatrix in="SourceAlpha" type="matrix" values="0 0 0 0 0 0 0 0 0 0 0 0 0 0 0 0 0 0 127 0" result="hardAlpha"/>
<feMorphology radius="4" operator="dilate" in="SourceAlpha" result="effect1_dropShadow_659_586"/>
<feOffset dy="4"/>
<feGaussianBlur stdDeviation="2"/>
<feComposite in2="hardAlpha" operator="out"/>
<feColorMatrix type="matrix" values="0 0 0 0 0 0 0 0 0 0 0 0 0 0 0 0 0 0 0.25 0"/>
<feBlend mode="normal" in2="BackgroundImageFix" result="effect1_dropShadow_659_586"/>
<feBlend mode="normal" in="SourceGraphic" in2="effect1_dropShadow_659_586" result="shape"/>
</filter>
<linearGradient id="paint0_linear_659_586" x1="267.58" y1="27.3857" x2="267.58" y2="984.742" gradientUnits="userSpaceOnUse">
<stop stop-color="#F2C94C"/>
<stop offset="1" stop-color="#F2994A"/>
</linearGradient>
</defs>
</svg>
